<?xml version="1.0" standalone="no"?>
<!DOCTYPE svg PUBLIC "-//W3C//DTD SVG 20010904//EN"
 "http://www.w3.org/TR/2001/REC-SVG-20010904/DTD/svg10.dtd">
<svg version="1.0" xmlns="http://www.w3.org/2000/svg"
 width="435.000000pt" height="144.000000pt" viewBox="0 0 435.000000 144.000000"
 preserveAspectRatio="xMidYMid meet">

<g transform="translate(0.000000,144.000000) scale(0.100000,-0.100000)"
fill="#000000" stroke="none">
<path d="M1353 1154 c-10 -4 -13 -47 -13 -166 0 -144 -2 -159 -16 -147 -8 7
-22 26 -31 43 -9 17 -19 33 -23 36 -3 3 -21 32 -40 65 -19 33 -43 72 -54 88
-21 29 -42 37 -32 11 3 -8 2 -12 -4 -9 -6 3 -10 1 -10 -6 0 -7 -8 -2 -19 9
l-18 22 -26 -24 c-15 -14 -41 -27 -59 -29 -29 -3 -28 -4 9 -5 l42 -2 68 -112
c37 -62 70 -117 72 -123 2 -5 17 -29 33 -52 l29 -43 95 0 94 0 -2 223 -3 222
-40 2 c-22 1 -46 0 -52 -3z m-253 -109 c0 -13 -4 -14 -20 -5 -11 6 -20 13 -20
15 0 3 9 5 20 5 11 0 20 -7 20 -15z"/>
<path d="M1747 1153 c-12 -11 -8 -851 3 -858 7 -4 10 142 10 429 0 240 -1 436
-3 436 -2 0 -7 -3 -10 -7z"/>
<path d="M1908 1054 c2 -71 -1 -110 -9 -120 -19 -23 14 -18 35 5 14 16 18 37
17 101 0 45 4 90 9 101 10 17 7 19 -22 19 l-33 0 3 -106z"/>
<path d="M2025 1088 c-15 -40 -34 -83 -41 -95 -14 -22 -13 -23 17 -23 25 0 29
3 20 13 -16 20 9 50 40 45 19 -2 24 -9 24 -30 -1 -25 3 -28 32 -28 28 0 32 3
24 18 -9 19 -24 64 -41 130 -8 30 -16 42 -30 42 -14 0 -25 -18 -45 -72z m49
-20 c6 -25 4 -28 -19 -28 -29 0 -28 -2 -14 39 12 35 23 32 33 -11z"/>
<path d="M2175 1065 c0 -93 1 -95 23 -95 15 0 21 4 16 11 -10 16 -13 80 -5
102 5 14 12 3 25 -38 10 -33 22 -55 29 -52 7 2 22 27 33 57 l22 53 3 -47 c3
-26 1 -56 -3 -66 -7 -19 -3 -20 60 -20 67 0 68 0 67 28 0 24 4 27 34 30 32 3
33 2 29 -27 -4 -29 -3 -31 30 -31 23 0 32 4 28 13 -2 6 -17 49 -31 95 -32 100
-53 109 -81 35 -35 -97 -53 -133 -68 -133 -11 0 -15 17 -18 76 -2 41 1 82 5
91 7 12 3 14 -23 11 -28 -3 -35 -9 -49 -45 -23 -60 -28 -60 -48 -4 -16 46 -21
51 -48 51 l-30 0 0 -95z m325 -12 c0 -7 -9 -13 -20 -13 -22 0 -23 3 -13 51 l7
34 12 -30 c7 -16 13 -36 14 -42z"/>
<path d="M2560 1135 c0 -27 17 -34 26 -10 4 8 12 15 19 15 16 0 26 -125 13
-152 -7 -15 -4 -18 24 -18 l33 0 -3 85 c-4 88 5 105 34 68 12 -16 13 -15 14
10 l0 27 -80 0 c-79 0 -80 0 -80 -25z"/>
<path d="M2829 1074 c2 -65 0 -89 -10 -95 -9 -5 14 -9 59 -9 70 0 72 1 72 25
0 14 -4 25 -10 25 -5 0 -10 -7 -10 -15 0 -10 -10 -15 -30 -15 -28 0 -30 3 -30
35 0 34 20 49 35 25 11 -18 22 -1 17 25 -3 19 -8 23 -15 16 -20 -20 -37 -12
-37 19 0 25 4 30 24 30 14 0 28 -4 31 -10 10 -17 25 -11 25 10 0 18 -7 20 -62
20 l-63 0 4 -86z"/>
<path d="M1120 1143 c0 -6 8 -17 18 -24 16 -13 16 -13 2 6 -8 11 -16 22 -17
24 -2 2 -3 0 -3 -6z"/>
<path d="M2720 1045 c0 -10 10 -15 29 -15 16 0 31 6 35 15 4 12 -3 15 -29 15
-24 0 -35 -5 -35 -15z"/>
<path d="M945 999 c-16 -7 -14 -8 10 -4 24 4 27 3 12 -5 -10 -7 -14 -16 -10
-23 5 -8 2 -8 -9 1 -14 11 -16 1 -17 -94 -1 -72 -7 -116 -17 -135 l-15 -29 68
0 68 0 -5 142 c-3 91 -2 146 5 150 15 11 -67 8 -90 -3z m65 -14 c0 -8 -2 -15
-4 -15 -2 0 -6 7 -10 15 -3 8 -1 15 4 15 6 0 10 -7 10 -15z"/>
<path d="M1492 935 c0 -16 2 -22 5 -12 2 9 2 23 0 30 -3 6 -5 -1 -5 -18z"/>
<path d="M870 910 c0 -5 -8 -6 -17 -3 -16 6 -16 5 -4 -10 12 -15 11 -17 -10
-18 -13 -1 -30 -1 -38 0 -7 2 -11 -2 -8 -6 3 -5 -4 -22 -17 -38 -21 -26 -28
-28 -79 -26 -60 2 -66 -1 -43 -25 13 -12 12 -17 -8 -39 -16 -17 -29 -22 -44
-18 -14 3 -22 1 -22 -7 0 -8 33 -11 125 -8 121 3 125 4 152 31 24 24 28 36 31
102 3 51 1 75 -7 75 -6 0 -11 -4 -11 -10z"/>
<path d="M1490 806 l0 -96 55 0 55 0 -1 98 c0 53 -3 90 -7 82 -10 -22 -66 -25
-86 -5 -15 15 -16 9 -16 -79z"/>
<path d="M1905 765 c0 -92 1 -95 23 -95 19 0 21 3 12 19 -13 24 -13 111 -1
111 5 0 12 -8 15 -18 12 -36 66 -112 80 -112 12 0 15 20 18 95 3 94 3 95 -21
95 -19 0 -21 -3 -12 -14 7 -8 11 -36 9 -63 l-3 -48 -35 62 c-28 51 -40 63 -60
63 -25 0 -25 0 -25 -95z"/>
<path d="M2132 853 c-20 -8 -42 -59 -42 -98 0 -46 36 -85 80 -85 45 0 67 15
80 56 15 45 0 108 -30 124 -19 10 -66 12 -88 3z m76 -67 c5 -72 -4 -96 -33
-96 -32 0 -38 12 -37 76 0 65 6 76 40 72 25 -3 27 -7 30 -52z"/>
<path d="M2311 834 c-29 -36 -29 -112 -1 -142 29 -31 83 -30 115 3 37 36 32
130 -9 157 -6 4 -28 8 -48 8 -28 0 -42 -6 -57 -26z m94 -38 c10 -66 -1 -106
-30 -106 -29 0 -45 26 -45 72 0 60 10 78 41 78 25 0 28 -4 34 -44z"/>
<path d="M2488 848 c7 -7 12 -41 12 -83 0 -42 -5 -76 -12 -83 -9 -9 -4 -12 23
-12 34 0 35 0 31 41 -5 52 15 50 41 -4 13 -28 23 -37 42 -37 l25 0 -26 45
c-22 41 -23 47 -9 61 21 21 19 61 -4 74 -11 5 -46 10 -77 10 -45 0 -55 -3 -46
-12z m100 -46 c-2 -19 -10 -28 -25 -30 -20 -3 -23 1 -23 31 0 41 7 49 32 36
13 -7 18 -19 16 -37z"/>
<path d="M2664 852 c2 -4 5 -39 7 -77 2 -84 16 -105 70 -105 56 0 69 19 69 99
0 39 5 72 12 79 9 9 5 12 -17 12 l-30 0 0 -82 c0 -83 0 -83 -27 -86 -24 -3
-28 1 -34 33 -3 20 -4 58 -2 86 5 49 5 49 -24 49 -16 0 -27 -4 -24 -8z"/>
<path d="M2856 848 c4 -6 7 -49 7 -95 l-1 -83 59 0 c56 0 59 1 59 25 0 14 -4
25 -10 25 -5 0 -10 -7 -10 -15 0 -9 -10 -15 -26 -15 l-25 0 3 85 3 85 -33 0
c-23 0 -31 -4 -26 -12z"/>
<path d="M3075 765 l0 -95 35 0 c26 0 31 3 22 12 -16 16 -16 150 0 166 9 9 4
12 -22 12 l-35 0 0 -95z"/>
<path d="M3188 849 c-31 -17 -23 -64 15 -90 39 -28 47 -38 40 -56 -7 -19 -50
-16 -57 4 -5 12 -10 13 -18 5 -22 -22 -1 -42 45 -42 51 0 67 13 67 56 0 26 -7
37 -35 54 -42 26 -48 60 -10 60 14 0 25 -4 25 -10 0 -5 6 -10 14 -10 9 0 12 7
9 20 -4 15 -14 20 -42 20 -20 0 -44 -5 -53 -11z"/>
<path d="M3314 852 c12 -19 15 -70 7 -124 l-8 -58 64 0 63 0 0 31 c0 17 -4 28
-10 24 -5 -3 -10 -13 -10 -21 0 -8 -10 -14 -26 -14 l-25 0 3 85 3 85 -33 0
c-18 0 -31 -4 -28 -8z"/>
<path d="M3521 838 c-4 -13 -18 -50 -30 -83 -13 -33 -27 -65 -33 -72 -8 -10
-4 -13 19 -13 27 0 29 2 25 31 -4 29 -3 30 29 27 30 -3 34 -6 34 -30 -1 -25 3
-28 32 -28 33 0 33 0 20 28 -8 15 -22 57 -31 95 -15 53 -22 67 -37 67 -11 0
-23 -10 -28 -22z m27 -55 c10 -31 10 -33 -13 -33 -22 0 -23 2 -12 35 6 19 11
34 12 32 1 -1 7 -17 13 -34z"/>
<path d="M3655 765 c0 -93 0 -95 24 -95 17 0 21 3 14 13 -12 14 -17 135 -6
123 4 -4 15 -31 23 -59 22 -72 41 -71 68 0 l22 58 -3 -68 c-2 -66 -1 -67 23
-67 25 0 25 0 25 95 l0 95 -26 0 c-22 0 -28 -8 -46 -57 l-20 -58 -18 58 c-17
53 -21 57 -49 57 l-31 0 0 -95z"/>
<path d="M493 625 c-4 -12 0 -23 12 -31 64 -47 105 -88 95 -94 -19 -12 -7 -52
23 -74 25 -18 42 -21 130 -21 56 0 120 3 142 8 l40 7 -35 -16 c-19 -9 -64 -19
-100 -23 l-65 -7 40 -18 c70 -32 183 -33 310 -1 75 19 137 28 195 29 76 0 96
-4 198 -43 63 -23 116 -41 118 -38 5 5 -115 120 -169 162 -21 17 -68 45 -103
64 -95 49 -157 51 -309 11 -239 -64 -310 -73 -370 -45 l-30 13 40 -5 c22 -2
48 -6 58 -8 34 -6 15 11 -79 74 -109 72 -131 81 -141 56z"/>
<path d="M610 625 c0 -8 19 -28 43 -45 23 -16 47 -33 52 -38 40 -33 66 -43 95
-37 16 4 30 10 30 13 0 4 -40 33 -89 65 -88 57 -131 71 -131 42z"/>
<path d="M736 621 c-6 -10 11 -26 77 -70 39 -26 53 -31 74 -24 25 9 23 11 -48
56 -74 47 -93 54 -103 38z"/>
<path d="M847 623 c-13 -13 -6 -22 39 -54 35 -24 50 -29 66 -22 18 8 14 13
-36 46 -61 40 -60 40 -69 30z"/>
<path d="M2537 594 c-4 -4 -7 -18 -7 -31 0 -28 -11 -29 -35 -3 -22 24 -41 26
-49 5 -4 -11 5 -22 29 -36 38 -22 37 -40 -1 -58 -22 -10 -25 -16 -22 -54 l3
-42 55 0 55 0 -2 45 c-4 70 -4 123 -1 149 3 24 -12 38 -25 25z m3 -124 c0 -5
-7 -10 -15 -10 -8 0 -15 5 -15 10 0 6 7 10 15 10 8 0 15 -4 15 -10z"/>
<path d="M2607 582 c-12 -14 -14 -36 -10 -114 3 -54 9 -98 13 -98 23 0 31 35
29 124 -1 53 -5 98 -9 101 -4 2 -14 -3 -23 -13z"/>
<path d="M2080 581 c0 -5 -3 -16 -6 -24 -3 -9 7 -28 25 -46 39 -40 41 -71 6
-71 -27 0 -32 -18 -15 -51 13 -23 43 -25 61 -3 12 14 14 14 25 0 10 -14 31
-16 130 -14 l119 3 3 34 c5 49 -7 103 -21 98 -7 -2 -13 -13 -15 -25 -4 -24
-18 -29 -25 -9 -3 9 -7 9 -20 -2 -14 -11 -20 -11 -32 -1 -12 10 -18 10 -29 1
-8 -7 -30 -11 -48 -9 l-33 3 -3 63 c-4 77 -25 81 -30 6 -3 -46 -22 -90 -22
-51 0 26 -37 94 -55 100 -8 4 -15 2 -15 -2z"/>
<path d="M2930 575 c0 -8 7 -15 15 -15 8 0 15 7 15 15 0 8 -7 15 -15 15 -8 0
-15 -7 -15 -15z"/>
<path d="M3444 575 c-8 -19 2 -180 11 -194 3 -6 31 -11 61 -11 31 0 64 -5 74
-10 13 -7 21 -7 25 0 3 6 51 10 110 10 l104 0 8 38 c4 20 8 39 8 42 0 3 -21
24 -47 48 -40 37 -50 42 -67 32 -12 -6 -21 -20 -21 -31 0 -11 5 -17 10 -14 13
8 50 -4 50 -16 0 -5 -27 -9 -60 -9 -56 0 -60 2 -75 30 -20 38 -45 38 -74 -1
-17 -23 -29 -29 -49 -27 -25 3 -28 8 -36 66 -9 60 -21 78 -32 47z m166 -122
c0 -13 -3 -13 -15 -3 -8 7 -12 16 -9 21 8 13 24 1 24 -18z"/>
<path d="M3114 536 c-8 -22 3 -33 18 -18 9 9 9 15 0 24 -9 9 -13 7 -18 -6z"/>
<path d="M3154 539 c-10 -17 13 -36 27 -22 12 12 4 33 -11 33 -5 0 -12 -5 -16
-11z"/>
<path d="M2806 506 c-28 -58 -31 -94 -10 -117 10 -11 24 -17 31 -15 16 7 17
-10 2 -20 -7 -4 -24 -7 -40 -6 -40 1 -27 -26 17 -34 37 -7 59 5 69 37 5 16 16
19 66 19 l59 0 0 58 c0 69 -9 104 -24 99 -6 -2 -12 -18 -14 -35 -3 -30 -6 -32
-43 -32 -31 0 -39 4 -39 18 0 23 -28 62 -44 62 -8 0 -21 -15 -30 -34z m49 -37
c-6 -9 -35 -1 -35 10 0 4 3 11 7 14 8 9 34 -13 28 -24z"/>
<path d="M1974 509 c-10 -11 -34 -27 -52 -35 l-34 -14 6 -57 c11 -95 18 -123
27 -117 5 3 9 23 9 44 0 45 14 58 39 36 24 -22 34 -20 57 12 18 24 19 33 10
80 -13 63 -35 81 -62 51z m29 -50 c3 -13 1 -19 -6 -16 -15 5 -22 37 -9 37 5 0
12 -9 15 -21z"/>
<path d="M3321 516 c-7 -8 -11 -23 -9 -33 5 -28 -52 -32 -59 -4 -7 27 -19 27
-33 1 -10 -19 -19 -21 -83 -18 -67 3 -72 5 -77 28 l-6 25 -12 -22 c-16 -30
-15 -74 3 -100 15 -21 22 -22 179 -22 l164 0 10 41 c12 46 8 60 -12 52 -7 -3
-19 2 -26 11 -11 13 -9 15 15 15 21 0 26 4 21 16 -3 9 -6 18 -6 20 0 11 -59 2
-69 -10z"/>
<path d="M2711 471 c-10 -19 -10 -26 3 -40 9 -10 16 -22 16 -28 0 -17 -46 -53
-68 -53 -12 0 -22 -5 -22 -10 0 -15 51 -32 76 -26 43 11 56 113 20 161 -13 18
-14 18 -25 -4z"/>
<path d="M3742 334 c4 -21 22 -23 26 -1 2 10 -3 17 -13 17 -10 0 -15 -6 -13
-16z"/>
<path d="M3133 333 c-7 -2 -13 -8 -13 -13 0 -10 38 -1 46 11 6 10 -13 11 -33
2z"/>
</g>
</svg>
